<?xml version="1.0" encoding="utf-8"?>
<!-- Svg Vector Icons : http://www.onlinewebfonts.com/icon -->
<!DOCTYPE svg PUBLIC "-//W3C//DTD SVG 1.1//EN" "http://www.w3.org/Graphics/SVG/1.1/DTD/svg11.dtd">
<svg version="1.1" xmlns="http://www.w3.org/2000/svg" xmlns:xlink="http://www.w3.org/1999/xlink" x="0px" y="0px" viewBox="0 0 256 256" enable-background="new 0 0 256 256" xml:space="preserve">
<metadata> Svg Vector Icons : http://www.onlinewebfonts.com/icon </metadata>
<g> <path fill="#000000" d="M128,229.5H77.3c-4.2,0-9.2-2.1-9.2-12.2l5.3-133.2c0.1-1.9,1.6-3.3,3.5-3.2c1.9,0.1,3.3,1.6,3.2,3.5 l-5.3,133c0,5.3,1.3,5.3,2.5,5.3H128c1.9,0,3.4,1.5,3.4,3.4C131.4,227.9,129.9,229.5,128,229.5z M43.8,206.6 c-0.8,0-1.7-0.1-2.7-0.3L17,202.7c-2.5-0.5-5.6-1.6-6.6-4.8c-0.7-2.1-0.3-4.3,0.3-7.1L41.4,53.9c0-0.2,0.1-0.4,0.2-0.5 C48.5,36.6,80.3,30,85.2,29.5l17.1-2.9c0.7-0.1,1.4,0,2.1,0.3c0.1,0.1,12.4,6.1,23.6,6.1v6.8c-11,0-22.2-4.7-25.6-6.3l-16.1,2.7 c-0.2,0-0.4,0-0.6,0c-4.3,0.3-32.3,7.1-37.7,19.5L17.3,192.3c-0.2,0.8-0.6,2.7-0.5,3.4c0.1,0,0.5,0.2,1.4,0.4l24.2,3.5 c2,0.4,2.8,0.6,3.8-3.8L73.6,82.7l6.6,1.6L52.8,197.3C51.4,203.5,48.4,206.6,43.8,206.6z M178.7,229.5H128c-1.9,0-3.4-1.5-3.4-3.4 c0-1.9,1.5-3.4,3.4-3.4h50.7c1.2,0,2.5,0,2.5-5.4l-5.3-132.9c-0.1-1.9,1.4-3.4,3.2-3.5c1.9-0.1,3.4,1.4,3.5,3.2l5.3,133 C188,227.4,183,229.5,178.7,229.5z M212.1,206.6c-4.5,0-7.5-3.1-8.9-9.3l-27.4-113l6.6-1.6l27.4,113.1c1,4.5,1.8,4.3,3.5,3.9 L238,196c1-0.2,1.3-0.5,1.4-0.5c0-0.3-0.5-2.4-0.7-3.3L208,55.7c-5.5-12.4-33.5-19.2-37.8-19.5c-0.1,0-0.4,0-0.5,0l-16.1-2.7 c-3.4,1.6-14.7,6.3-25.6,6.3v-6.8c11.3,0,23.5-6,23.6-6.1c0.6-0.3,1.4-0.4,2.1-0.3l17.1,2.9c4.9,0.5,36.7,7.2,43.6,23.9 c0.1,0.2,0.1,0.4,0.2,0.6l30.7,136.9c0.6,2.9,1,5,0.3,7.1c-1.1,3.3-4.2,4.3-6.4,4.8l-24.7,3.6C213.7,206.5,212.9,206.6,212.1,206.6 z M126.3,38.6h3.4v184.6h-3.4V38.6z M150.9,79.2H145c-0.9,0-1.7-0.8-1.7-1.7c0-0.9,0.8-1.7,1.7-1.7h5.9c0.9,0,1.7,0.8,1.7,1.7 C152.5,78.4,151.8,79.2,150.9,79.2z M162.1,79.2h-5.9c-0.9,0-1.7-0.8-1.7-1.7c0-0.9,0.8-1.7,1.7-1.7h5.9c0.9,0,1.7,0.8,1.7,1.7 C163.8,78.4,163.1,79.2,162.1,79.2z M90.3,200.4c-0.8,0-1.4-0.5-1.6-1.3c-0.2-0.9,0.3-1.8,1.2-2c0.2-0.1,9.9-3.4,9.9-29.9 c0-0.9,0.8-1.7,1.7-1.7c0.9,0,1.7,0.8,1.7,1.7c0,29.7-11.9,33.1-12.4,33.2C90.5,200.4,90.4,200.4,90.3,200.4z M163.6,200.4 c-0.1,0-0.3,0-0.4-0.1c-0.5-0.1-12.4-3.5-12.4-33.2c0-0.9,0.8-1.7,1.7-1.7s1.7,0.8,1.7,1.7c0,26.7,9.8,29.9,9.9,29.9 c0.9,0.3,1.4,1.2,1.2,2.1C165,199.9,164.3,200.4,163.6,200.4z M82.8,215.2h1.7v8h-1.7V215.2z M76,215.2h1.7v8H76V215.2z  M89.4,215.2h1.7v8h-1.7V215.2z M96.1,215.2h1.7v8h-1.7V215.2z M101.8,215.2h1.7v8h-1.7V215.2z M21.7,189.7l1.7,0.3l-1.4,7.8 l-1.7-0.3L21.7,189.7z M26.5,189.7l1.7,0.3l-1.4,7.8l-1.7-0.3L26.5,189.7z M31.1,190.3l1.7,0.3l-1.4,7.8l-1.7-0.3L31.1,190.3z  M35.6,190.9l1.7,0.3l-1.4,7.8l-1.7-0.3L35.6,190.9z M40,191.8l1.7,0.3l-1.4,7.8l-1.7-0.3L40,191.8z M108.2,215.2h1.7v8h-1.7V215.2 z M115.2,215.2h1.7v8h-1.7V215.2z M121.1,215.2h1.7v8h-1.7V215.2z M134,215.2h1.7v8H134V215.2z M139.1,215.2h1.7v8h-1.7V215.2z  M145.8,215.2h1.7v8h-1.7V215.2z M151.5,215.2h1.7v8h-1.7V215.2z M157.8,215.2h1.7v8h-1.7V215.2z M164.8,215.2h1.7v8h-1.7V215.2z  M170.7,215.2h1.7v8h-1.7V215.2z M177.5,215.2h1.7v8h-1.7V215.2z M71.7,213.5h112.9v3.4H71.7V213.5z M15.2,185.6l33.9,5.5l-0.5,3.3 l-33.9-5.5L15.2,185.6z M233.7,189.9l1.4,7.8l-1.7,0.3l-1.4-7.8L233.7,189.9z M228.9,189.9l1.4,7.8l-1.7,0.3l-1.4-7.8L228.9,189.9z  M224.4,190.5l1.4,7.8l-1.7,0.3l-1.4-7.8L224.4,190.5z M219.9,191.1l1.4,7.8l-1.7,0.3l-1.4-7.8L219.9,191.1L219.9,191.1z  M215.5,192l1.4,7.8l-1.7,0.3l-1.4-7.8L215.5,192z M240.2,185.8l0.5,3.3l-33.9,5.5l-0.5-3.3L240.2,185.8z M135.8,52.1 c-1.5,0-3-0.6-4-1.7l-0.4-0.6l-5.2-13.1l13.6,5.6c2.2,2.2,2.2,5.8,0,8.1C138.8,51.5,137.4,52.1,135.8,52.1z M134.4,48.2 c0.9,0.7,2.3,0.6,3.1-0.2c0.8-0.8,0.9-2.1,0.2-3.1l-5.4-2.1L134.4,48.2z"/></g>
</svg>