<?xml version="1.0" encoding="utf-8"?>
<!-- Svg Vector Icons : http://www.onlinewebfonts.com/icon -->
<!DOCTYPE svg PUBLIC "-//W3C//DTD SVG 1.1//EN" "http://www.w3.org/Graphics/SVG/1.1/DTD/svg11.dtd">
<svg version="1.1" xmlns="http://www.w3.org/2000/svg" xmlns:xlink="http://www.w3.org/1999/xlink" x="0px" y="0px" viewBox="0 0 256 256" enable-background="new 0 0 256 256" xml:space="preserve">
<metadata> Svg Vector Icons : http://www.onlinewebfonts.com/icon </metadata>
<g><g><g><path fill="#000000" d="M201.3,79.8c-10.9,1.4-56.6,7.4-101.7,13.3c-45.1,5.8-82.4,10.8-83,11.1c-1.1,0.4-1.1,0.6-1.1,10.6V125h-1.7c-1.1,0-2.1,0.4-2.7,1c-0.9,0.9-1,1.6-1,22.4c0,17,0.1,21.6,0.6,22.3c0.6,0.9,2.5,0.9,37.2,1l36.5,0l2.1,1.9c1.1,1,3.4,2.5,4.9,3.2l2.8,1.3H124h29.9l2.8-1.3c1.5-0.7,3.8-2.2,5-3.3l2.2-2l4.1,0.2l4.1,0.2l0.1,1.4c0.2,2.5,1.2,4.1,2.7,4.9c1.7,0.9,12,1.1,13.6,0.2c1.3-0.7,2.2-2.3,2.5-4.7l0.3-2l22.7,0c21.4-0.1,22.7-0.1,23.4-0.9c0.5-0.7,0.6-5.2,0.6-22.5c0-20.3,0-21.6-0.9-22.4c-0.8-0.7-2.4-0.8-11-0.9l-10.1,0l6.4-0.9c3.6-0.5,6.8-1,7.3-1.2c1-0.4,16.2-24.2,16.2-25.4c0-0.5-4.5-5.1-10.5-10.6c-10.2-9.4-10.6-9.7-12.5-9.6C222,77.2,212.2,78.4,201.3,79.8z M228.1,86.9c2.9,2.7,6.8,6.3,8.6,8l3.3,3.2l-6.3,10c-4,6.4-6.7,10.1-7.3,10.3c-0.5,0.1-8.6,1.2-17.9,2.4l-16.9,2.1l-0.8-2.3c-0.4-1.2-0.9-2.5-1-2.9c-0.1-0.4-1.8-0.6-6.4-0.6c-5.7,0-6.5,0.1-8.9,1.2l-2.6,1.3l0.3,2.7l0.3,2.7h-4.7h-4.6l-1.7-1.8c-0.9-0.9-2.9-2.4-4.4-3.1l-2.7-1.3H124H93.7l-2.3,1.1c-1.3,0.6-3.3,2-4.5,3.1l-2.2,1.9H52.5H20.4l0.1-8.2l0.1-8.3L101.1,98c64.6-8.4,118.7-15.5,121.4-15.9C222.6,82.1,225.2,84.2,228.1,86.9z M186.3,148.2v25.7h-4.4h-4.4v-25.7l0-25.7h4.4h4.4V148.2z M152.2,124c3.3,0.7,6.3,3.1,8.1,6.4l1.5,2.7v15.3c0,16.9,0,17-3.2,20.7c-0.9,1-2.6,2.3-3.7,2.9c-2,1.1-2.3,1.1-29.9,1.2c-32,0.2-31.5,0.2-35.1-3.6c-1.1-1.2-2.3-2.8-2.6-3.6c-0.8-2.1-1.5-7.5-1.1-9.3c0.3-1.7,0.3-1.7,3.2-1.7h2.9v1.7c0,3.7,2.6,7.5,6.2,9.2c1.8,0.8,3.7,0.9,25.3,0.9c25.4,0,25.4,0,28.4-2.9c2.9-2.7,3.1-3.4,3.2-14.6c0.1-7.2,0-11-0.4-12.6c-0.7-2.5-2.5-4.5-5.6-6c-1.9-0.9-3.3-1-24.9-1c-14.5,0-23.6,0.2-24.8,0.5c-2.1,0.6-5,2.9-6,4.9c-0.4,0.8-0.8,2.3-1,3.4l-0.3,2.1l-3-0.2l-3-0.1l0.1-3.6c0.2-6.5,3.3-11.1,8.5-12.7C97.8,123.3,148.2,123.1,152.2,124z M81.5,132c-0.2,0.9-0.4,1.6-0.4,1.7c0,0-0.4,0.2-1,0.3c-0.5,0.2-1,0.6-1,1.1c0,0.4,0.4,0.9,1,1.1c0.8,0.2,1,0.7,1,2.4c0,2.1-0.1,2.2-1.4,2.2c-3,0-6.5,3.9-6.5,7.2c0,3.3,2.7,6.4,6,7.1c1.6,0.3,1.7,0.5,1.8,2.5c0.1,1.2-0.1,2.7-0.4,3.3c-0.5,1-0.5,1.4,0.2,2.6c1.9,3.2,4.2,3-32.5,3H14.9v-18v-18h33.5H82L81.5,132z M172.2,145.8c-0.1,8.5-0.2,15.8-0.2,16.2c0,0.4,0,1.6,0.2,2.6l0.3,1.9h-3.2h-3.3l0.4-1.5c0.2-0.8,0.7-1.8,1-2.2c0.4-0.5,0.4-0.9,0-1.7c-0.3-0.6-0.5-5.3-0.5-12.8v-11.8l2.4-0.2c1.9-0.1,2.3-0.3,2.3-1.1s-0.4-1-2.3-1.1c-1.3-0.1-2.4-0.2-2.4-0.2c0,0-0.2-0.8-0.4-1.7l-0.5-1.6h3.2h3.2L172.2,145.8z M233.2,148.4v18h-20.7h-20.7v-1.2c0-0.7,0.3-1.7,0.6-2.2c0.5-0.8,0.5-1.2,0-2c-0.4-0.7-0.6-4.2-0.6-12.8v-11.8l1.6-0.1c1.2-0.1,1.6-0.4,1.6-1.1c0-0.7-0.4-1-1.6-1.1c-1.5-0.1-1.6-0.3-1.6-1.9v-1.7h20.7h20.7V148.4z M107.1,135.6c0.2,0.5,1,0.7,3,0.7s2.8-0.2,3-0.7c0.2-0.6,1.2-0.7,4.4-0.7c3.4,0,4.1,0.1,4.1,0.7c0,0.6,0.6,0.7,2.7,0.7c2,0,2.8-0.2,3-0.7c0.2-0.6,1.2-0.7,4.4-0.7c3.4,0,4.1,0.1,4.1,0.7c0,0.6,0.6,0.7,2.7,0.7c2,0,2.8-0.2,3-0.7c0.4-1,4.2-1,6.2,0.1c2.5,1.3,2.9,3.1,2.9,12.7c0,10-0.3,11.4-3,12.7c-2.3,1.2-6.9,1.3-7.9,0.2c-0.8-1-4.1-1-4.9,0c-0.4,0.5-1.6,0.7-4.2,0.7c-2.8,0-3.7-0.2-3.9-0.7c-0.2-0.5-1-0.7-2.5-0.7c-1.5,0-2.3,0.2-2.5,0.7c-0.2,0.5-1.1,0.7-3.9,0.7c-2.6,0-3.8-0.2-4.2-0.7c-0.3-0.4-1.4-0.7-2.5-0.7c-1,0-2.1,0.3-2.5,0.7c-0.4,0.5-1.6,0.7-3.9,0.7s-3.5-0.2-3.9-0.7c-0.3-0.4-0.9-0.7-1.3-0.7c-0.8,0-1.5-1.2-1.9-3.6l-0.3-1.8h3.7c4.5,0,6.5-1.1,8.2-4.5c1-2,1.1-2.6,0.6-4c-1.3-4.1-3.9-5.7-8.9-5.7c-1.9,0-3.5-0.2-3.5-0.4c0-1.4,1.3-3.8,2.7-4.5C102,134.6,106.7,134.4,107.1,135.6z M103.8,146.2c1.3,0.7,1.3,2.8,0,3.5c-1.3,0.7-23,0.7-24.3,0c-1.2-0.6-1.2-2.8-0.1-3.4C80.7,145.6,102.6,145.6,103.8,146.2z"/><path fill="#000000" d="M215.7,86.6c-0.5,0.4-0.8,0.9-0.7,1.3c0.3,0.8,3.9,2.1,4.8,1.8c1-0.3,0.7-2.1-0.5-2.9C217.9,85.8,216.9,85.8,215.7,86.6z"/><path fill="#000000" d="M204.2,87.8c-1.7,0.2-2.5,1.5-1.5,2.4c0.8,0.8,4.8,0.3,5.2-0.6c0.3-0.8-0.7-2.2-1.5-2C206,87.5,205.1,87.7,204.2,87.8z"/><path fill="#000000" d="M189.8,90.1c-0.3,0.3-0.4,1-0.2,1.5c0.3,0.7,0.8,0.8,2.5,0.6c2.5-0.2,3.4-0.9,3-2C194.6,89.2,190.6,89.1,189.8,90.1z"/><path fill="#000000" d="M178,91.2c-0.6,0.1-1.2,0.5-1.3,0.9c-0.3,0.9,0.9,2.2,2,2c3.6-0.7,3.7-0.8,3.5-1.9C182.1,91.1,180.5,90.8,178,91.2z"/><path fill="#000000" d="M223.3,91.5c-0.9,0.9-0.6,1.7,1,2.9c1.4,0.9,1.6,1,2.3,0.3c1-1,0.5-2.1-1.2-3C224.3,91.1,223.8,91.1,223.3,91.5z"/><path fill="#000000" d="M166,92.8c-1.3,0.2-1.8,0.6-1.9,1.4c-0.2,1.4,0.8,1.8,3.2,1.2c1.2-0.3,1.9-0.7,2-1.3c0.2-0.8-0.7-1.9-1.4-1.7C167.8,92.5,167,92.6,166,92.8z"/><path fill="#000000" d="M152.1,94.7c-0.5,0.1-0.9,0.7-0.9,1.4c0,1.1,0.2,1.2,2.1,1.2c2.5,0,3.5-0.5,3.2-1.8c-0.1-0.7-0.6-0.9-1.9-1C153.7,94.5,152.5,94.6,152.1,94.7z"/><path fill="#000000" d="M140.1,96.3c-1,0.2-1.5,0.6-1.6,1.3c-0.2,1.3,0.6,1.6,3.1,1.2c1.7-0.2,2-0.5,2-1.5C143.5,96,142.7,95.7,140.1,96.3z"/><path fill="#000000" d="M230.3,96.7c-0.3,0.2-0.5,1.1-0.4,2.1c0.1,0.9,0.2,1.8,0.2,2c0.1,0.9,2,0.3,3-0.9l1.1-1.4l-1.4-1.1C231.3,96.2,231.2,96.2,230.3,96.7z"/><path fill="#000000" d="M126.1,98.3c-0.4,0.2-0.6,0.8-0.5,1.3c0.1,0.8,0.6,0.9,2.6,0.8c2.4,0,3.4-0.7,2.9-2C130.8,97.7,127.2,97.6,126.1,98.3z"/><path fill="#000000" d="M113.8,99.8c-0.7,0.2-1.1,0.8-1,1.3c0.2,1.2,4.4,1.5,5.3,0.5C119.6,99.8,116.8,98.6,113.8,99.8z"/><path fill="#000000" d="M101.8,101.2c-1.3,0.2-1.8,0.6-1.9,1.3c-0.2,1.3,0.9,1.8,3.4,1.4c2-0.3,2.9-1.4,1.9-2.5C104.6,100.7,104.5,100.7,101.8,101.2z"/><path fill="#000000" d="M87.8,103.4c-1.5,1-0.6,2.3,1.6,2.3c2.3,0,3.9-1,3.4-2.2C92.4,102.6,89.1,102.5,87.8,103.4z"/><path fill="#000000" d="M76.1,104.6c-1.5,0.2-2.2,1.5-1.3,2.5c0.5,0.4,1.3,0.5,2.9,0.2c1.9-0.3,2.2-0.5,2.2-1.6C79.9,104.4,78.9,104.1,76.1,104.6z"/><path fill="#000000" d="M225.6,105.5c-0.4,0.6-0.8,1.7-0.8,2.2c0,1.5,1.8,1.1,3.1-0.6c0.8-1.1,0.9-1.5,0.3-2.1C227.3,103.9,226.5,104,225.6,105.5z"/><path fill="#000000" d="M61.8,106.9c-1.1,1.3,0.3,2.4,2.6,2.1c2.2-0.3,3.1-0.9,2.7-2C66.7,106,62.7,105.9,61.8,106.9z"/><path fill="#000000" d="M50.1,108c-0.8,0.1-1.1,0.6-1.1,1.4c0,1.1,0.2,1.2,2.1,1.2c2.5,0,3.5-0.5,3.2-1.8C54.2,107.9,52.4,107.5,50.1,108z"/><path fill="#000000" d="M38.1,109.6c-1.3,0.2-1.8,0.6-1.9,1.4c-0.2,1.4,0.6,1.7,3.1,1.2c1.3-0.2,2-0.7,2.1-1.3c0.2-0.8-0.7-1.9-1.4-1.7C40,109.3,39.1,109.4,38.1,109.6z"/><path fill="#000000" d="M25.2,111.5c-0.5,0.5-0.4,2,0.1,2.4c0.3,0.2,1.2,0.2,2,0c1.1-0.2,1.5-0.6,1.5-1.5c0-1-0.2-1.2-1.6-1.2C26.2,111.1,25.3,111.3,25.2,111.5z"/><path fill="#000000" d="M220.3,112.4c-0.3,0.4-0.9,0.7-1.2,0.7c-1,0-1.3,1.4-0.5,2.1c1.5,1.5,5.3-0.9,4.5-2.9C222.7,111.4,221.1,111.4,220.3,112.4z"/><path fill="#000000" d="M208.5,114.6c-0.8,0.2-1.2,0.7-1.2,1.3c0,0.8,0.4,1,2,1.1c2.2,0.1,3.5-0.8,3-2.1C211.9,114.1,210.6,114,208.5,114.6z"/><path fill="#000000" d="M197.3,115.9c-0.8,0.1-1.1,0.5-1.1,1.4c0,1.2,0.1,1.2,2.4,1.1c2.1-0.1,2.3-0.2,2.3-1.4C200.8,115.8,199.7,115.4,197.3,115.9z"/><path fill="#000000" d="M164,120.8c-0.5,0.6-0.5,0.9,0,1.5c1.2,1.5,4.9,0.3,4.3-1.4C167.9,119.8,164.9,119.7,164,120.8z"/><path fill="#000000" d="M18.1,134.6c-0.5,1.2,0.4,1.8,2.3,1.6c1.3-0.1,1.7-0.4,1.7-1.1c0-0.8-0.4-1-1.9-1.1C18.9,133.9,18.3,134,18.1,134.6z"/><path fill="#000000" d="M29.3,135.1c0,1.2,0.1,1.2,2.7,1.2s2.7,0,2.7-1.2c0-1.2-0.1-1.2-2.7-1.2S29.3,133.9,29.3,135.1z"/><path fill="#000000" d="M41.8,134.6c-0.5,1.3,0.5,1.8,3.1,1.6c2-0.1,2.4-0.3,2.4-1.1c0-0.8-0.4-1-2.6-1.1C42.6,133.9,42,134,41.8,134.6z"/><path fill="#000000" d="M54.4,135.1c0,1.2,0.1,1.2,2.7,1.2c2.6,0,2.7,0,2.7-1.2c0-1.2-0.1-1.2-2.7-1.2C54.6,133.9,54.4,133.9,54.4,135.1z"/><path fill="#000000" d="M67,134.6c-0.5,1.3,0.5,1.8,3.1,1.6c2-0.1,2.4-0.3,2.4-1.1c0-0.8-0.4-1-2.6-1.1C67.8,133.9,67.2,134,67,134.6z"/><path fill="#000000" d="M18.4,161.3c-0.8,1,0.1,2.2,1.7,2.2s2.5-1.2,1.7-2.2c-0.3-0.4-1.1-0.7-1.7-0.7C19.5,160.5,18.7,160.9,18.4,161.3z"/><path fill="#000000" d="M29.8,161.3c-0.9,1.1,0.2,2.2,2.5,2.2s3.4-1.1,2.5-2.2c-0.3-0.4-1.4-0.7-2.5-0.7C31.2,160.5,30.1,160.9,29.8,161.3z"/><path fill="#000000" d="M42.6,161.3c-0.9,1.1,0.2,2.2,2.5,2.2s3.4-1.1,2.5-2.2c-0.3-0.4-1.4-0.7-2.5-0.7C44,160.5,42.9,160.9,42.6,161.3z"/><path fill="#000000" d="M55.4,161.3c-0.9,1.1,0.2,2.2,2.5,2.2c2.2,0,3.4-1.1,2.5-2.2c-0.3-0.4-1.4-0.7-2.5-0.7C56.9,160.5,55.8,160.9,55.4,161.3z"/><path fill="#000000" d="M68.3,161.3c-0.9,1.1,0.2,2.2,2.5,2.2c1,0,2.1-0.3,2.5-0.7c0.9-1.1-0.2-2.2-2.5-2.2C69.7,160.5,68.6,160.9,68.3,161.3z"/><path fill="#000000" d="M201.6,135.1c0,1.2,0.1,1.3,2.6,1.1c2.2-0.1,2.6-0.3,2.6-1.1c0-0.8-0.4-1-2.6-1.1C201.7,133.8,201.6,133.9,201.6,135.1z"/><path fill="#000000" d="M213.6,134.6c-0.5,1.2,0.3,1.7,2.8,1.7c2.3,0,2.4-0.1,2.4-1.2c0-1.1-0.1-1.2-2.5-1.2C214.6,133.9,213.8,134.1,213.6,134.6z"/><path fill="#000000" d="M225.8,135.1c0,1.1,0.2,1.2,2,1.2s2-0.2,2-1.2c0-1.1-0.2-1.2-2-1.2S225.8,134,225.8,135.1z"/><path fill="#000000" d="M200.3,161.2c-0.6,1.7,0.2,2.3,2.6,2.2c2.2-0.1,2.4-0.2,2.4-1.4c0-1.1-0.2-1.2-2.4-1.4C201.2,160.5,200.5,160.7,200.3,161.2z"/><path fill="#000000" d="M213.1,161.2c-0.6,1.7,0.2,2.3,2.6,2.2c2.2-0.1,2.4-0.2,2.4-1.4c0-1.1-0.2-1.2-2.4-1.4C214,160.5,213.3,160.7,213.1,161.2z"/><path fill="#000000" d="M226,161.2c-0.6,1.5,0.2,2.3,1.9,2.2c1.4-0.1,1.6-0.3,1.6-1.4c0-1-0.2-1.3-1.6-1.4C226.7,160.5,226.1,160.7,226,161.2z"/></g></g></g>
</svg>