<?xml version="1.0" encoding="utf-8"?>
<!-- Svg Vector Icons : http://www.onlinewebfonts.com/icon -->
<!DOCTYPE svg PUBLIC "-//W3C//DTD SVG 1.1//EN" "http://www.w3.org/Graphics/SVG/1.1/DTD/svg11.dtd">
<svg version="1.1" xmlns="http://www.w3.org/2000/svg" xmlns:xlink="http://www.w3.org/1999/xlink" x="0px" y="0px" viewBox="0 0 256 256" enable-background="new 0 0 256 256" xml:space="preserve">
<metadata> Svg Vector Icons : http://www.onlinewebfonts.com/icon </metadata>
<g><g><g><path fill="#000000" d="M92.3,11.2c-0.6,0.6-1.2,1.7-1.2,2.3c0,0.7,3.8,8,9.2,17.7l9.2,16.5l-9.2,80.8c-5,44.5-9.1,81.3-8.9,81.8c0.1,0.6,8.1,8.8,17.7,18.3c16.2,16.2,17.6,17.4,19,17.4c1.5,0,2.9-1.2,19-17.4c9.6-9.5,17.5-17.8,17.7-18.3c0.1-0.5-3.9-37.3-8.9-81.8l-9.2-80.9l9.2-16.5c5.4-9.7,9.2-17,9.2-17.7c0-0.6-0.5-1.7-1.2-2.3l-1.1-1.2H128H93.4L92.3,11.2z M154.6,17.7c0,0.2-3.2,6-7.1,12.9l-6.9,12.5H128h-12.7l-6.9-12.5c-3.8-6.9-7-12.7-7.1-12.9c-0.1-0.2,11.9-0.4,26.6-0.4S154.7,17.6,154.6,17.7z M139.5,50.9c0,0.2,4,35,8.8,77.4c4.8,42.4,8.8,77.6,8.8,78.4c0,1.2-2.2,3.5-14.5,15.9L128,237l-14.5-14.5C100.9,209.9,99,207.8,99,206.6c0-0.7,4-36,8.8-78.4c4.8-42.4,8.8-77.2,8.8-77.3c0-0.1,5.2-0.3,11.5-0.3C134.4,50.6,139.5,50.7,139.5,50.9z"/></g></g></g>
</svg>