<?xml version="1.0" encoding="utf-8"?>
<!-- Svg Vector Icons : http://www.onlinewebfonts.com/icon -->
<!DOCTYPE svg PUBLIC "-//W3C//DTD SVG 1.1//EN" "http://www.w3.org/Graphics/SVG/1.1/DTD/svg11.dtd">
<svg version="1.1" xmlns="http://www.w3.org/2000/svg" xmlns:xlink="http://www.w3.org/1999/xlink" x="0px" y="0px" viewBox="0 0 256 256" enable-background="new 0 0 256 256" xml:space="preserve">
<metadata> Svg Vector Icons : http://www.onlinewebfonts.com/icon </metadata>
<g><g><g><path fill="#000000" d="M99.6,10.3c-3.1,1.1-5.4,3-6.7,5.4L91.7,18h-6.6h-6.7l-13.5,6.9C8.1,54,10,52.9,10,57.1c0,1.8,1.5,4.2,15.5,25.7c8.5,13.1,16,24.2,16.5,24.6c1.8,1.4,3.9,1.5,6.5,0.4c1.3-0.6,2.6-1.2,2.9-1.3c0.5-0.2,0.6,13.2,0.7,64l0.1,64.3l1.1,1.5c3.5,4.9,15.2,7.4,43.8,9.5c10.4,0.7,51.2,0.7,61.5,0c12.6-0.9,21.8-1.9,28.3-3.1c9.9-1.8,14.3-3.8,15.9-7.3c0.8-1.9,0.9-4,0.9-66.2c0-51.2,0.1-64.2,0.6-64c0.3,0.1,2.9,1,5.6,1.9c5.6,2,6.8,1.9,9-0.1c0.8-0.7,6.6-11,14.1-24.7C247,57,247,56.9,245.1,53.8c-1-1.6,0.9-0.6-41-22.2l-25.9-13.4l-8.8,0.1l-8.8,0.2l-0.6-1.6c-0.7-2-3.3-4.7-5.8-6c-2.7-1.4-8.1-1.5-10.7,0c-1,0.6-5.3,3.8-9.5,7.3c-4.2,3.5-7.7,6.3-7.9,6.3s-3.8-2.9-8.1-6.5c-8.3-6.8-11-8.3-14.7-8.3C102.3,9.7,100.6,10,99.6,10.3z M111.8,28.6c4.2,3.5,7.7,6.3,7.7,6.3c0.3,0.2-3.8,8.9-4.1,8.7c-0.2-0.1-3.4-3.8-7.2-8.2l-6.8-8l0.9-2.9c0.6-1.8,1.1-2.8,1.4-2.6C103.9,22.2,107.6,25.1,111.8,28.6z M148.1,30.8c-1.5,1.8-4.6,5.5-6.9,8.2c-2.3,2.7-4.3,4.9-4.4,4.9c-0.3,0-3.7-7.9-3.7-8.6c0-0.3,3.6-3.5,8-7.1l8-6.6l0.9,3l1,2.9L148.1,30.8z M106.5,39.5c4.5,5.2,8.6,9.7,9,9.9c0.5,0.3,1.2,0.3,1.5,0.2c0.4-0.1,1.8-2.9,3.2-6.1l2.5-5.9h3.4h3.4l2.4,5.4c2.6,6.1,3.5,7.4,4.8,6.6c0.4-0.3,4.4-4.7,8.9-9.8l8.1-9.3l10.9-0.1l10.9-0.1l28.1,14.5c15.5,8,28.1,14.7,28.1,14.9c0,0.3-18.8,35.1-19.2,35.4c0,0-3.2-1.1-7.1-2.5s-7.4-2.5-7.8-2.5c-1.4,0-4,1.6-4.9,3c-0.8,1.4-0.9,3.7-0.9,68.9v67.4l-3.1,0.7c-25.8,5.9-98,5.8-121.6,0l-2.9-0.7v-67.2c0-64.1,0-67.2-0.8-68.7c-0.9-1.7-3.3-3.3-5-3.3c-0.5,0-3.1,1.1-5.7,2.3c-2.6,1.3-4.9,2.2-5.1,2c-0.1-0.2-5.4-8.1-11.6-17.6c-8-12.3-11.1-17.4-10.7-17.8c0.3-0.3,13-6.9,28.2-14.8L81,30h8.7h8.6L106.5,39.5z"/></g></g></g>
</svg>