<?xml version="1.0" encoding="utf-8"?>
<!-- Svg Vector Icons : http://www.onlinewebfonts.com/icon -->
<!DOCTYPE svg PUBLIC "-//W3C//DTD SVG 1.1//EN" "http://www.w3.org/Graphics/SVG/1.1/DTD/svg11.dtd">
<svg version="1.1" xmlns="http://www.w3.org/2000/svg" xmlns:xlink="http://www.w3.org/1999/xlink" x="0px" y="0px" viewBox="0 0 256 256" enable-background="new 0 0 256 256" xml:space="preserve">
<metadata> Svg Vector Icons : http://www.onlinewebfonts.com/icon </metadata>
<g><g><path fill="#000000" d="M238.6,128h-7.4V69c0-8.2-6.6-14.8-14.8-14.8V39.5c0-5-1.5-8.8-4.5-11.4c-4.4-3.9-10.1-3.3-10.7-3.3c-0.3,0-5.5,0.6-14,1.4l-2.4-6.5c-2.8-7.7-11.2-11.6-18.9-8.8L99,35.4c-31.7,3.3-61.7,6.4-74.6,7.9c-10.8,1.2-14.1,14.4-14.4,22c0,0,0,0.1,0,0.1h0v165.9c0,8.2,6.6,14.8,14.8,14.8h191.7c8.2,0,14.8-6.6,14.8-14.8v-59h7.4c4.1,0,7.4-3.3,7.4-7.4v-29.5C246,131.3,242.7,128,238.6,128L238.6,128z M202.2,32.1c0,0,3-0.3,5,1.5c1.3,1.2,2,3.2,2,5.9v14.8h-11.5L190,33.4C197.4,32.6,201.9,32.2,202.2,32.1z M168.6,17.9c3.8-1.4,8.1,0.6,9.4,4.4l11.7,32h-22.5c-3-8.6-11.2-14.8-20.8-14.8c-9.6,0-17.8,6.2-20.8,14.8h-57L168.6,17.9L168.6,17.9z M159.1,54.3h-25.4c2.6-4.4,7.2-7.4,12.7-7.4C151.8,46.9,156.6,49.9,159.1,54.3L159.1,54.3z M25.1,50.6c8.8-1,25.5-2.7,45.3-4.8L47,54.3H24.7c-1.8,0-3.4,0.4-5,0.9C21,52.8,22.7,50.8,25.1,50.6L25.1,50.6z M223.8,231.2c0,4.1-3.3,7.4-7.4,7.4H24.7c-4.1,0-7.4-3.3-7.4-7.4V69c0-4.1,3.3-7.4,7.4-7.4h191.7c4.1,0,7.4,3.3,7.4,7.4v59h-59c-4.1,0-7.4,3.3-7.4,7.4v29.5c0,4.1,3.3,7.4,7.4,7.4h59V231.2z M238.6,161.2c0,2-1.6,3.7-3.7,3.7h-66.4c-2,0-3.7-1.6-3.7-3.7v-22.1c0-2,1.6-3.7,3.7-3.7h66.4c2,0,3.7,1.6,3.7,3.7L238.6,161.2L238.6,161.2z M172.2,150.1c0,4.1,3.3,7.4,7.4,7.4s7.4-3.3,7.4-7.4c0-4.1-3.3-7.4-7.4-7.4S172.2,146.1,172.2,150.1z M205.4,83.8h7.4c2,0,3.7-1.6,3.7-3.7s-1.6-3.7-3.7-3.7h-7.4c-2,0-3.7,1.6-3.7,3.7C201.7,82.1,203.4,83.8,205.4,83.8z M183.3,83.8h7.4c2,0,3.7-1.6,3.7-3.7s-1.6-3.7-3.7-3.7h-7.4c-2,0-3.7,1.6-3.7,3.7S181.3,83.8,183.3,83.8z M161.2,83.8h7.4c2,0,3.7-1.6,3.7-3.7s-1.6-3.7-3.7-3.7h-7.4c-2,0-3.7,1.6-3.7,3.7S159.1,83.8,161.2,83.8z M146.4,76.4h-7.4c-2,0-3.7,1.6-3.7,3.7s1.6,3.7,3.7,3.7h7.4c2,0,3.7-1.6,3.7-3.7S148.5,76.4,146.4,76.4z M124.3,76.4h-7.4c-2,0-3.7,1.6-3.7,3.7s1.6,3.7,3.7,3.7h7.4c2,0,3.7-1.6,3.7-3.7S126.4,76.4,124.3,76.4z M102.2,76.4h-7.4c-2,0-3.7,1.6-3.7,3.7s1.6,3.7,3.7,3.7h7.4c2,0,3.7-1.6,3.7-3.7S104.2,76.4,102.2,76.4z M80,76.4h-7.4c-2,0-3.7,1.6-3.7,3.7s1.6,3.7,3.7,3.7H80c2,0,3.7-1.6,3.7-3.7S82.1,76.4,80,76.4z M57.9,76.4h-7.4c-2,0-3.7,1.6-3.7,3.7s1.6,3.7,3.7,3.7h7.4c2,0,3.7-1.6,3.7-3.7S60,76.4,57.9,76.4z M35.8,76.4h-7.4c-2,0-3.7,1.6-3.7,3.7s1.6,3.7,3.7,3.7h7.4c2,0,3.7-1.6,3.7-3.7S37.9,76.4,35.8,76.4z M205.4,223.9h7.4c2,0,3.7-1.6,3.7-3.7c0-2-1.6-3.7-3.7-3.7h-7.4c-2,0-3.7,1.6-3.7,3.7C201.7,222.2,203.4,223.9,205.4,223.9z M183.3,223.9h7.4c2,0,3.7-1.6,3.7-3.7c0-2-1.6-3.7-3.7-3.7h-7.4c-2,0-3.7,1.6-3.7,3.7C179.6,222.2,181.3,223.9,183.3,223.9z M157.5,220.2c0,2,1.6,3.7,3.7,3.7h7.4c2,0,3.7-1.6,3.7-3.7c0-2-1.6-3.7-3.7-3.7h-7.4C159.1,216.5,157.5,218.1,157.5,220.2z M146.4,216.5h-7.4c-2,0-3.7,1.6-3.7,3.7c0,2,1.6,3.7,3.7,3.7h7.4c2,0,3.7-1.6,3.7-3.7C150.1,218.1,148.5,216.5,146.4,216.5z M124.3,216.5h-7.4c-2,0-3.7,1.6-3.7,3.7c0,2,1.6,3.7,3.7,3.7h7.4c2,0,3.7-1.6,3.7-3.7C128,218.1,126.4,216.5,124.3,216.5z M102.2,216.5h-7.4c-2,0-3.7,1.6-3.7,3.7c0,2,1.6,3.7,3.7,3.7h7.4c2,0,3.7-1.6,3.7-3.7C105.9,218.1,104.2,216.5,102.2,216.5z M80,216.5h-7.4c-2,0-3.7,1.6-3.7,3.7c0,2,1.6,3.7,3.7,3.7H80c2,0,3.7-1.6,3.7-3.7C83.7,218.1,82.1,216.5,80,216.5z M57.9,216.5h-7.4c-2,0-3.7,1.6-3.7,3.7c0,2,1.6,3.7,3.7,3.7h7.4c2,0,3.7-1.6,3.7-3.7C61.6,218.1,60,216.5,57.9,216.5z M35.8,216.5h-7.4c-2,0-3.7,1.6-3.7,3.7c0,2,1.6,3.7,3.7,3.7h7.4c2,0,3.7-1.6,3.7-3.7C39.5,218.1,37.9,216.5,35.8,216.5z"/></g></g>
</svg>