<?xml version="1.0" encoding="utf-8"?>
<!-- Svg Vector Icons : http://www.onlinewebfonts.com/icon -->
<!DOCTYPE svg PUBLIC "-//W3C//DTD SVG 1.1//EN" "http://www.w3.org/Graphics/SVG/1.1/DTD/svg11.dtd">
<svg version="1.1" xmlns="http://www.w3.org/2000/svg" xmlns:xlink="http://www.w3.org/1999/xlink" x="0px" y="0px" viewBox="0 0 256 256" enable-background="new 0 0 256 256" xml:space="preserve">
<metadata> Svg Vector Icons : http://www.onlinewebfonts.com/icon </metadata>
<g><g><path fill="#000000" d="M173.4,246c-28.6,0-29.8-1.2-31-2.4c-1.1-1.1-2.3-2.4-15.3-123.8c-11.7,120.7-12,121.8-12.2,122.2c-1,3.1-1.2,3.7-32.6,3.7c-27.5,0-27.8-0.7-29.1-3.1c-1.5-2.9-0.3-106.9-0.3-108C53.8,63.3,55.5,23.4,58,16c0.2-0.6,0.8-2.4,2.6-3.3c4.3-2,17.8-2.8,48.2-2.8l19.1,0l19.5,0c37.4,0,46,1.1,48.9,3.1c2.3,1.7,4.2,3,6.1,115.8c0.8,45.6,1.4,110.8,1.1,112.6C202.9,245.1,202.7,246,173.4,246z M148.3,237.6c3.9,0.4,13.1,0.7,25.1,0.7c10.8,0,18.8-0.3,22.6-0.6c0.2-25.4-2-200-5.1-218.6c-4.3-0.9-18.9-1.4-43.5-1.4l-19.5,0l-19.1,0c-24.3,0-39,0.6-43.8,1.7c-4.2,17.4-5.7,191.8-4.8,218.2c3.4,0.2,10.5,0.5,22,0.5c11.8,0,21.2-0.2,25.5-0.5c1.8-16.9,10.6-107,15.3-156.1c0.2-2,1.8-3.5,3.8-3.5c0,0,0,0,0,0c2,0,3.6,1.5,3.8,3.4C136.7,138.3,145.9,223,148.3,237.6z"/><path fill="#000000" d="M62.8,56.1c-2.1,0-4.1-0.4-6.1-1.3c-1-0.4-1.4-1.6-1-2.6c0.4-1,1.6-1.4,2.6-1C73.1,58,95.6,28.3,95.9,28c0.6-0.8,1.9-1,2.7-0.4c0.8,0.7,1,1.8,0.4,2.7C98,31.5,79.3,56.1,62.8,56.1z"/><path fill="#000000" d="M191.7,56.1c-16.5,0-35.2-24.6-36.1-25.8c-0.6-0.8-0.5-2,0.4-2.7c0.8-0.6,2-0.5,2.7,0.4c0.2,0.3,22.8,30,37.5,23.3c1-0.5,2.1,0,2.6,1c0.4,1,0,2.1-1,2.6C195.9,55.7,193.8,56.1,191.7,56.1z"/><path fill="#000000" d="M124.5,81.8l-0.9-68.2l3.9,0l0.9,68.2L124.5,81.8z"/><path fill="#000000" d="M135.8,21.8c0,1.7-1.4,3.1-3.1,3.1l0,0c-1.7,0-3.1-1.4-3.1-3.1l0,0c0-1.7,1.4-3.1,3.1-3.1l0,0C134.4,18.7,135.8,20,135.8,21.8L135.8,21.8z"/><path fill="#000000" d="M60.1,26h134.4v3.9H60.1V26L60.1,26z"/><path fill="#000000" d="M84.4,29.9c-1.1,0-1.9-0.9-1.9-1.9V16c0-1.1,0.9-1.9,1.9-1.9c1.1,0,1.9,0.9,1.9,1.9v12C86.3,29,85.5,29.9,84.4,29.9z"/><path fill="#000000" d="M167.6,29.9c-1.1,0-1.9-0.9-1.9-1.9V16c0-1.1,0.9-1.9,1.9-1.9s1.9,0.9,1.9,1.9v12C169.5,29,168.6,29.9,167.6,29.9z"/></g></g>
</svg>